<?xml version="1.0" encoding="UTF-8" standalone="no"?>
<!-- Uploaded to: SVG Repo, www.svgrepo.com, Generator: SVG Repo Mixer Tools -->

<svg
   width="100.00001"
   height="100.00001"
   viewBox="0 0 3.0000002 3.0000002"
   fill="none"
   version="1.1"
   id="svg4"
   sodipodi:docname="close.svg"
   inkscape:version="1.2.2 (b0a8486541, 2022-12-01)"
   xmlns:inkscape="http://www.inkscape.org/namespaces/inkscape"
   xmlns:sodipodi="http://sodipodi.sourceforge.net/DTD/sodipodi-0.dtd"
   xmlns="http://www.w3.org/2000/svg"
   xmlns:svg="http://www.w3.org/2000/svg">
  <defs
     id="defs8" />
  <sodipodi:namedview
     id="namedview6"
     pagecolor="#505050"
     bordercolor="#ffffff"
     borderopacity="1"
     inkscape:showpageshadow="0"
     inkscape:pageopacity="0"
     inkscape:pagecheckerboard="1"
     inkscape:deskcolor="#505050"
     showgrid="false"
     inkscape:zoom="1.0825"
     inkscape:cx="66.050808"
     inkscape:cy="85.91224"
     inkscape:window-width="1920"
     inkscape:window-height="1043"
     inkscape:window-x="0"
     inkscape:window-y="0"
     inkscape:window-maximized="1"
     inkscape:current-layer="svg4" />
  <path
     fill-rule="evenodd"
     clip-rule="evenodd"
     d="m 0.06276225,0.06276225 c 0.083685,-0.083683 0.2193625,-0.083683 0.3030476,0 L 1.5000026,1.1969592 2.6341975,0.06276225 c 0.083679,-0.083683 0.2193646,-0.083683 0.3030434,0 0.083679,0.083685 0.083679,0.2193625 0,0.3030476 L 1.803046,1.5000026 2.9372409,2.6341975 c 0.083679,0.083679 0.083679,0.2193646 0,0.3030434 -0.083679,0.083679 -0.2193647,0.083679 -0.3030434,0 L 1.5000026,1.803046 0.36580985,2.9372409 c -0.083685,0.083679 -0.2193625,0.083679 -0.3030476,0 -0.083683,-0.083679 -0.083683,-0.2193647 0,-0.3030434 L 1.1969592,1.5000026 0.06276225,0.36580985 c -0.083683,-0.083685 -0.083683,-0.2193625 0,-0.3030476 z"
     fill="#0F1729"
     id="path2"
     style="fill:#000000;stroke-width:0.214286" />
</svg>
