<?xml version="1.0" encoding="UTF-8" standalone="no"?>
<!-- Created with Inkscape (http://www.inkscape.org/) -->

<svg
   width="26.458334mm"
   height="26.45833mm"
   viewBox="0 0 26.458334 26.45833"
   version="1.1"
   id="svg5"
   xml:space="preserve"
   inkscape:version="1.2.2 (b0a8486541, 2022-12-01)"
   sodipodi:docname="instagram.svg"
   xmlns:inkscape="http://www.inkscape.org/namespaces/inkscape"
   xmlns:sodipodi="http://sodipodi.sourceforge.net/DTD/sodipodi-0.dtd"
   xmlns="http://www.w3.org/2000/svg"
   xmlns:svg="http://www.w3.org/2000/svg"><sodipodi:namedview
     id="namedview7"
     pagecolor="#505050"
     bordercolor="#ffffff"
     borderopacity="1"
     inkscape:showpageshadow="0"
     inkscape:pageopacity="0"
     inkscape:pagecheckerboard="1"
     inkscape:deskcolor="#505050"
     inkscape:document-units="mm"
     showgrid="false"
     inkscape:zoom="4.3641424"
     inkscape:cx="94.749428"
     inkscape:cy="44.453178"
     inkscape:window-width="1920"
     inkscape:window-height="1043"
     inkscape:window-x="0"
     inkscape:window-y="0"
     inkscape:window-maximized="1"
     inkscape:current-layer="layer1" /><defs
     id="defs2" /><g
     inkscape:label="Layer 1"
     inkscape:groupmode="layer"
     id="layer1"
     transform="translate(-27.205524,-44.529267)"><path
       style="fill:#000000;stroke-width:0.0511247"
       d="m 34.136428,70.951654 c -0.948864,-0.102271 -1.693141,-0.314993 -2.568255,-0.734031 -2.430193,-1.163675 -4.025491,-3.447879 -4.312902,-6.175374 -0.06633,-0.629455 -0.06633,-11.920747 0,-12.5502 0.193434,-1.835667 0.93726,-3.405176 2.222975,-4.690591 1.290973,-1.290672 2.848085,-2.028278 4.691685,-2.222459 0.629602,-0.06631 11.923526,-0.06631 12.553129,0 2.341392,0.246611 4.375769,1.465474 5.673028,3.398902 0.526185,0.784222 1.001875,1.995345 1.174554,2.99045 0.08667,0.499467 0.09314,0.971673 0.09314,6.798797 0,7.04147 0.01527,6.727526 -0.386295,7.938914 -0.779105,2.350258 -2.541016,4.111871 -4.889136,4.888307 -1.217805,0.402683 -0.828895,0.382892 -7.711766,0.392402 -3.374627,0.0047 -6.317696,-0.01115 -6.540156,-0.03511 z m 13.238276,-2.515198 c 0.880835,-0.272405 1.618387,-0.685363 2.22209,-1.244156 0.696571,-0.644751 1.300218,-1.661363 1.544306,-2.600794 l 0.119539,-0.460068 v -6.36429 -6.364289 L 51.144246,50.94586 c -0.133528,-0.524285 -0.46185,-1.248293 -0.780805,-1.721816 -0.281646,-0.418136 -0.953616,-1.08995 -1.37185,-1.37153 -0.451558,-0.304017 -1.176444,-0.637163 -1.693582,-0.77834 l -0.43461,-0.118649 h -6.416904 -6.416903 l -0.434611,0.118649 c -0.517136,0.141177 -1.242024,0.474323 -1.693582,0.77834 -0.418233,0.28158 -1.090204,0.953394 -1.37185,1.37153 -0.30409,0.451453 -0.637311,1.176171 -0.778523,1.693187 l -0.118675,0.43451 v 6.415407 6.415408 l 0.118675,0.434509 c 0.141212,0.517017 0.474433,1.241734 0.778523,1.693187 0.281646,0.418136 0.953617,1.08995 1.37185,1.37153 0.628327,0.42303 1.548268,0.788691 2.230455,0.886567 0.08436,0.0121 2.99498,0.01941 6.468034,0.01621 l 6.31464,-0.0058 z m -7.719775,-3.927055 c -0.535901,-0.0564 -1.279446,-0.250733 -1.800875,-0.470681 -2.170054,-0.915373 -3.66429,-2.785252 -4.112976,-5.146957 -0.105937,-0.557597 -0.07891,-1.879095 0.05092,-2.490115 0.289031,-1.360281 0.866718,-2.417155 1.86884,-3.419046 1.005651,-1.005417 2.048979,-1.575823 3.418749,-1.869092 0.685195,-0.146701 1.932899,-0.15854 2.611396,-0.02477 1.412178,0.278402 2.629639,0.939911 3.628449,1.971527 0.92792,0.958396 1.491334,2.023054 1.785546,3.37406 0.143265,0.657868 0.151144,1.86017 0.01677,2.55968 -0.274071,1.426761 -0.940565,2.658454 -1.976427,3.652468 -1.491482,1.431226 -3.409273,2.081948 -5.490392,1.862934 z m 1.701291,-2.427015 c 1.370123,-0.281523 2.625049,-1.32457 3.168516,-2.63355 0.54905,-1.322425 0.393454,-2.919074 -0.399999,-4.104596 -0.845718,-1.26362 -2.167723,-1.972591 -3.678242,-1.972591 -1.760158,0 -3.276311,0.974497 -4.020058,2.583862 -0.510272,1.10416 -0.510272,2.519116 0,3.623277 0.582709,1.260903 1.760973,2.219005 3.07414,2.499728 0.480796,0.102782 1.365279,0.104626 1.855643,0.0039 z m 5.856216,-9.835925 c -0.670652,-0.140151 -1.149081,-0.660171 -1.247664,-1.356134 -0.0403,-0.284525 -0.03107,-0.378187 0.06658,-0.675671 0.366861,-1.117492 1.74558,-1.445747 2.598119,-0.618579 0.317719,0.308264 0.427778,0.594081 0.429994,1.116679 0.0015,0.373966 -0.01714,0.470576 -0.134442,0.693347 -0.329573,0.62593 -1.049118,0.979007 -1.712594,0.840358 z"
       id="path252" /></g></svg>
